<svg width="100%" viewBox="0 0 680 320" xmlns="http://www.w3.org/2000/svg">
<style>
.bg { fill: #07071a; }
.card-w { fill: #f0f0f0; stroke: #888; stroke-width: 0.5; }
.suit-r { fill: #e63946; }
.suit-b { fill: #1d3557; }
.chip-r { fill: #e63946; stroke: #fff; stroke-width: 1.5; }
.chip-g { fill: #2a9d8f; stroke: #fff; stroke-width: 1.5; }
.chip-b { fill: #264653; stroke: #fff; stroke-width: 1.5; }
.chip-y { fill: #e9c46a; stroke: #fff; stroke-width: 1.5; }
.sky { fill: #0d0d2b; }
.bld { fill: #1a1a3a; stroke: #2a2a5a; stroke-width: 0.5; }
.bld2 { fill: #12122e; stroke: #2a2a5a; stroke-width: 0.5; }
.col { fill: #2a2050; stroke: #6644aa; stroke-width: 0.8; }
.win { fill: #ffd70033; stroke: #ffd700; stroke-width: 0.3; }
.win-b { fill: #00cfff22; stroke: #00cfff; stroke-width: 0.3; }
.fount { fill: none; stroke: #00cfff; stroke-width: 1; opacity: 0.7; }
.road { fill: #1a1a2e; }
</style>
<rect class="bg" width="680" height="320" rx="12"/>
<rect x="0" y="140" width="680" height="100" class="sky" rx="0"/>
<circle cx="100" cy="30" r="1.5" fill="#fff" opacity="0.5"/>
<circle cx="180" cy="15" r="1" fill="#fff" opacity="0.4"/>
<circle cx="260" cy="25" r="1.5" fill="#fff" opacity="0.6"/>
<circle cx="350" cy="10" r="1" fill="#fff" opacity="0.3"/>
<circle cx="430" cy="20" r="1.5" fill="#fff" opacity="0.5"/>
<circle cx="520" cy="12" r="1" fill="#fff" opacity="0.4"/>
<circle cx="600" cy="28" r="1.5" fill="#fff" opacity="0.5"/>
<circle cx="50" cy="50" r="1" fill="#fff" opacity="0.3"/>
<circle cx="650" cy="45" r="1" fill="#fff" opacity="0.4"/>
<rect x="30" y="185" width="25" height="55" class="bld2"/>
<rect x="35" y="175" width="15" height="12" class="bld2"/>
<rect x="38" y="170" width="9" height="6" fill="#bf5fff" opacity="0.6"/>
<rect x="33" y="188" width="4" height="3" class="win-b"/>
<rect x="40" y="188" width="4" height="3" class="win-b"/>
<rect x="33" y="195" width="4" height="3" class="win-b"/>
<rect x="40" y="195" width="4" height="3" class="win-b"/>
<rect x="33" y="202" width="4" height="3" class="win-b"/>
<rect x="40" y="202" width="4" height="3" class="win-b"/>
<rect x="33" y="209" width="4" height="3" class="win-b"/>
<rect x="40" y="209" width="4" height="3" class="win-b"/>
<rect x="33" y="216" width="4" height="3" class="win-b"/>
<rect x="40" y="216" width="4" height="3" class="win-b"/>
<rect x="60" y="170" width="35" height="70" class="bld"/>
<rect x="65" y="160" width="25" height="12" class="bld"/>
<rect x="75" y="155" width="5" height="6" fill="#ff2d55" opacity="0.8"/>
<rect x="63" y="173" width="5" height="4" class="win"/>
<rect x="71" y="173" width="5" height="4" class="win"/>
<rect x="79" y="173" width="5" height="4" class="win"/>
<rect x="87" y="173" width="5" height="4" class="win"/>
<rect x="63" y="181" width="5" height="4" class="win"/>
<rect x="71" y="181" width="5" height="4" class="win"/>
<rect x="79" y="181" width="5" height="4" class="win"/>
<rect x="87" y="181" width="5" height="4" class="win"/>
<rect x="63" y="189" width="5" height="4" class="win"/>
<rect x="71" y="189" width="5" height="4" class="win"/>
<rect x="79" y="189" width="5" height="4" class="win"/>
<rect x="87" y="189" width="5" height="4" class="win"/>
<rect x="63" y="197" width="5" height="4" class="win"/>
<rect x="71" y="197" width="5" height="4" class="win"/>
<rect x="79" y="197" width="5" height="4" class="win"/>
<rect x="87" y="197" width="5" height="4" class="win"/>
<rect x="63" y="205" width="5" height="4" class="win"/>
<rect x="71" y="205" width="5" height="4" class="win"/>
<rect x="79" y="205" width="5" height="4" class="win"/>
<rect x="87" y="205" width="5" height="4" class="win"/>
<rect x="63" y="213" width="5" height="4" class="win"/>
<rect x="71" y="213" width="5" height="4" class="win"/>
<rect x="79" y="213" width="5" height="4" class="win"/>
<rect x="87" y="213" width="5" height="4" class="win"/>
<rect x="100" y="178" width="28" height="62" class="col"/>
<rect x="103" y="168" width="6" height="12" class="col"/>
<rect x="113" y="168" width="6" height="12" class="col"/>
<rect x="123" y="168" width="6" height="12" class="col"/>
<rect x="100" y="160" width="28" height="10" fill="#6644aa" stroke="#bf5fff" stroke-width="0.8"/>
<rect x="110" y="150" width="8" height="12" fill="#6644aa" stroke="#bf5fff" stroke-width="0.8"/>
<rect x="113" y="145" width="2" height="6" fill="#bf5fff"/>
<rect x="535" y="175" width="30" height="65" class="col"/>
<rect x="538" y="165" width="6" height="12" class="col"/>
<rect x="548" y="165" width="6" height="12" class="col"/>
<rect x="558" y="165" width="6" height="12" class="col"/>
<rect x="535" y="157" width="30" height="10" fill="#6644aa" stroke="#bf5fff" stroke-width="0.8"/>
<rect x="545" y="147" width="10" height="12" fill="#6644aa" stroke="#bf5fff" stroke-width="0.8"/>
<rect x="549" y="142" width="2" height="6" fill="#bf5fff"/>
<rect x="570" y="178" width="35" height="62" class="bld"/>
<rect x="575" y="168" width="25" height="12" class="bld"/>
<rect x="585" y="163" width="5" height="6" fill="#ff2d55" opacity="0.8"/>
<rect x="573" y="181" width="5" height="4" class="win"/>
<rect x="581" y="181" width="5" height="4" class="win"/>
<rect x="589" y="181" width="5" height="4" class="win"/>
<rect x="597" y="181" width="5" height="4" class="win"/>
<rect x="573" y="189" width="5" height="4" class="win"/>
<rect x="581" y="189" width="5" height="4" class="win"/>
<rect x="589" y="189" width="5" height="4" class="win"/>
<rect x="597" y="189" width="5" height="4" class="win"/>
<rect x="573" y="197" width="5" height="4" class="win"/>
<rect x="581" y="197" width="5" height="4" class="win"/>
<rect x="589" y="197" width="5" height="4" class="win"/>
<rect x="597" y="197" width="5" height="4" class="win"/>
<rect x="573" y="205" width="5" height="4" class="win"/>
<rect x="581" y="205" width="5" height="4" class="win"/>
<rect x="589" y="205" width="5" height="4" class="win"/>
<rect x="597" y="205" width="5" height="4" class="win"/>
<rect x="573" y="213" width="5" height="4" class="win"/>
<rect x="581" y="213" width="5" height="4" class="win"/>
<rect x="589" y="213" width="5" height="4" class="win"/>
<rect x="597" y="213" width="5" height="4" class="win"/>
<rect x="615" y="188" width="22" height="52" class="bld2"/>
<rect x="618" y="180" width="16" height="10" class="bld2"/>
<rect x="622" y="175" width="8" height="6" fill="#bf5fff" opacity="0.6"/>
<rect x="640" y="195" width="28" height="45" class="bld"/>
<rect x="645" y="187" width="18" height="10" class="bld"/>
<rect x="651" y="182" width="6" height="6" fill="#ff2d55" opacity="0.7"/>
<ellipse cx="340" cy="248" rx="80" ry="8" fill="#00cfff11" stroke="#00cfff" stroke-width="0.5"/>
<path d="M300,248 Q310,230 320,220 Q330,215 340,210 Q350,215 360,220 Q370,230 380,248" class="fount"/>
<path d="M315,248 Q322,235 330,226 Q335,222 340,220 Q345,222 350,226 Q358,235 365,248" class="fount" opacity="0.5"/>
<path d="M325,248 Q330,238 335,232 Q338,229 340,228 Q342,229 345,232 Q350,238 355,248" class="fount" opacity="0.3"/>
<rect x="0" y="238" width="680" height="30" class="road" rx="0"/>
<rect x="0" y="265" width="680" height="55" fill="#0d0d20" rx="0"/>
<g transform="translate(170, 265) rotate(-12)">
  <rect class="card-w" width="38" height="52" rx="3"/>
  <text x="4" y="12" font-size="10" font-weight="bold" class="suit-r" font-family="Arial">A</text>
  <text x="19" y="32" font-size="16" text-anchor="middle" class="suit-r" font-family="Arial">&#9829;</text>
</g>
<g transform="translate(185, 262) rotate(-3)">
  <rect class="card-w" width="38" height="52" rx="3"/>
  <text x="4" y="12" font-size="10" font-weight="bold" class="suit-b" font-family="Arial">K</text>
  <text x="19" y="32" font-size="16" text-anchor="middle" class="suit-b" font-family="Arial">&#9824;</text>
</g>
<g transform="translate(460, 265) rotate(10)">
  <rect class="card-w" width="38" height="52" rx="3"/>
  <text x="4" y="12" font-size="10" font-weight="bold" class="suit-r" font-family="Arial">Q</text>
  <text x="19" y="32" font-size="16" text-anchor="middle" class="suit-r" font-family="Arial">&#9830;</text>
</g>
<g transform="translate(478, 262) rotate(3)">
  <rect class="card-w" width="38" height="52" rx="3"/>
  <text x="4" y="12" font-size="10" font-weight="bold" class="suit-b" font-family="Arial">J</text>
  <text x="19" y="32" font-size="16" text-anchor="middle" class="suit-b" font-family="Arial">&#9827;</text>
</g>
<circle cx="80" cy="280" r="14" class="chip-r"/>
<text x="80" y="284" font-size="7" text-anchor="middle" fill="#fff" font-family="Arial" font-weight="bold">100</text>
<circle cx="100" cy="288" r="14" class="chip-g"/>
<text x="100" y="292" font-size="7" text-anchor="middle" fill="#fff" font-family="Arial" font-weight="bold">25</text>
<circle cx="90" cy="272" r="12" class="chip-y"/>
<text x="90" y="276" font-size="7" text-anchor="middle" fill="#1a1a00" font-family="Arial" font-weight="bold">5</text>
<circle cx="580" cy="280" r="14" class="chip-b"/>
<text x="580" y="284" font-size="7" text-anchor="middle" fill="#fff" font-family="Arial" font-weight="bold">50</text>
<circle cx="600" cy="288" r="14" class="chip-r"/>
<text x="600" y="292" font-size="7" text-anchor="middle" fill="#fff" font-family="Arial" font-weight="bold">100</text>
<circle cx="590" cy="272" r="12" class="chip-g"/>
<text x="590" y="276" font-size="7" text-anchor="middle" fill="#fff" font-family="Arial" font-weight="bold">25</text>
<polygon points="340,42 344,54 357,54 347,62 351,74 340,66 329,74 333,62 323,54 336,54" fill="#ffd700"/>
<text x="340" y="112" font-size="40" text-anchor="middle" font-family="Georgia, serif" font-weight="700" fill="#ffd700" letter-spacing="3">LINEBET365</text>
<text x="340" y="130" font-size="10" text-anchor="middle" fill="#aaa" font-family="Arial" letter-spacing="2">SMART BETTING ANALYSIS</text>
<line x1="210" y1="142" x2="290" y2="142" stroke="#ffd700" stroke-width="0.8" opacity="0.6"/>
<circle cx="340" cy="142" r="3" fill="#ffd700"/>
<line x1="390" y1="142" x2="470" y2="142" stroke="#ffd700" stroke-width="0.8" opacity="0.6"/>
<text x="340" y="162" font-size="11" text-anchor="middle" fill="#00ff9f" font-family="Arial" letter-spacing="1">NHL &#183; NBA &#183; MLB &#183; FOOTBALL</text>
<rect x="265" y="172" width="150" height="22" rx="11" fill="none" stroke="#ffd700" stroke-width="0.8"/>
<text x="340" y="187" font-size="10" text-anchor="middle" fill="#ffd700" font-family="Arial" letter-spacing="1">POWERED BY EV ANALYSIS</text>
<line x1="40" y1="228" x2="120" y2="228" stroke="#ff2d55" stroke-width="1.5" opacity="0.7"/>
<line x1="130" y1="228" x2="210" y2="228" stroke="#bf5fff" stroke-width="1.5" opacity="0.7"/>
<line x1="220" y1="228" x2="300" y2="228" stroke="#00cfff" stroke-width="1.5" opacity="0.7"/>
<line x1="310" y1="228" x2="370" y2="228" stroke="#ffd700" stroke-width="1.5" opacity="0.7"/>
<line x1="380" y1="228" x2="460" y2="228" stroke="#00ff9f" stroke-width="1.5" opacity="0.7"/>
<line x1="470" y1="228" x2="550" y2="228" stroke="#ff2d55" stroke-width="1.5" opacity="0.7"/>
<line x1="560" y1="228" x2="640" y2="228" stroke="#bf5fff" stroke-width="1.5" opacity="0.7"/>
<rect x="0" y="0" width="680" height="320" rx="12" fill="none" stroke="#ffd700" stroke-width="1" opacity="0.4"/>
</svg>
